<svg xmlns="http://www.w3.org/2000/svg" xmlns:xlink="http://www.w3.org/1999/xlink" viewBox="0 0 266 250" preserveAspectRatio="xMidYMid" style="display: block; shape-rendering: auto; background: transparent;" width="266" height="250"><style type="text/css">
  .ld-text text {
    text-anchor: middle;
    dominant-baseline: middle;
    font-size: 46px;
    opacity: 0;
    user-select: none;
    pointer-events: none;
  }
</style>
<g style="transform-origin:133px 125px;transform:scale(1)" class="ld-text">
<g transform="translate(133,125)">
  <g transform="scale(0.5750) translate(0,0)"><g class="path" style="opacity: 1; transform-origin: -164.36px 11.97px; transform: matrix3d(1, 0, 0, 0, 0, 1, 0, 0, 0, 0, 1, 0, 0, 0, 0, 1); animation: 0.793651s linear -0.44898s infinite normal forwards running animate-2mmn6bgnv7h; transform-box: view-box;"><path d="M31.68 48.62Q17.04 48.62 9.08 40.94Q1.12 33.26 1.12 16.38L1.12 16.38Q1.12-0.50 9.08-8.18Q17.04-15.86 31.68-15.86L31.68-15.86Q46.32-15.86 54.28-8.18Q62.24-0.50 62.24 16.38L62.24 16.38Q62.24 33.26 54.28 40.94Q46.32 48.62 31.68 48.62L31.68 48.62 zM31.68 34.38Q34.40 34.38 35.76 32.94Q37.12 31.50 37.12 28.46L37.12 28.46L37.12 4.30Q37.12 1.26 35.76-0.18Q34.40-1.62 31.68-1.62L31.68-1.62Q28.96-1.62 27.60-0.18Q26.24 1.26 26.24 4.30L26.24 4.30L26.24 28.46Q26.24 31.58 27.60 32.98Q28.96 34.38 31.68 34.38L31.68 34.38" style="fill: rgb(81, 115, 204);" transform="translate(-196.040,-23.749)"></path></g><g class="path" style="opacity: 1; transform-origin: -104.68px 14.63px; transform: matrix3d(1, 0, 0, 0, 0, 1, 0, 0, 0, 0, 1, 0, 0, 0, 0, 1); animation: 0.793651s linear -0.37415s infinite normal forwards running animate-2mmn6bgnv7h; transform-box: view-box;"><path d="M114.40 34.38L117.92 34.38L117.92 47.50L92.64 47.50L92.64 34.38L96 34.38L96 21.26Q96 18.62 94.88 17.38Q93.76 16.14 91.52 16.14L91.52 16.14Q86.72 16.14 86.72 21.26L86.72 21.26L86.72 34.38L90.08 34.38L90.08 47.50L64.80 47.50L64.80 34.38L68.32 34.38L68.32 16.14L64.80 16.14L64.80 3.02L86.72 3.02L86.72 9.26Q92.48 1.90 101.12 1.90L101.12 1.90Q107.76 1.90 111.08 6.06Q114.40 10.22 114.40 17.50L114.40 17.50L114.40 34.38" style="fill: rgb(34, 200, 254);" transform="translate(-196.040,-23.749)"></path></g><g class="path" style="opacity: 1; transform-origin: -44.76px 11.3px; transform: matrix3d(1, 0, 0, 0, 0, 1, 0, 0, 0, 0, 1, 0, 0, 0, 0, 1); animation: 0.793651s linear -0.29932s infinite normal forwards running animate-2mmn6bgnv7h; transform-box: view-box;"><path d="M165.84-14.74L179.36 34.38L182.56 34.38L182.56 47.50L151.20 47.50L151.20 34.38L156 34.38L154.72 27.98L143.84 27.98L142.56 34.38L147.36 34.38L147.36 47.50L120 47.50L120 34.38L123.20 34.38L136.72-14.74L165.84-14.74 zM148.88 3.58L145.60 19.50L152.96 19.50L149.68 3.58L148.88 3.58" style="fill: rgb(17, 175, 255);" transform="translate(-196.040,-23.749)"></path></g><g class="path" style="opacity: 1; transform-origin: 13.96px 28.84px; transform: matrix3d(1, 0, 0, 0, 0, 1, 0, 0, 0, 0, 1, 0, 0, 0, 0, 1); animation: 0.793651s linear -0.22449s infinite normal forwards running animate-2mmn6bgnv7h; transform-box: view-box;"><path d="M184.64 65.26L184.64 52.14L188.16 52.14L188.16 16.14L184.64 16.14L184.64 3.02L206.56 3.02L206.56 8.46Q208.56 5.90 211.72 3.90Q214.88 1.90 218.96 1.90L218.96 1.90Q227.12 1.90 231.24 7.98Q235.36 14.06 235.36 25.26L235.36 25.26Q235.36 36.46 231.24 42.54Q227.12 48.62 218.96 48.62L218.96 48.62Q214.88 48.62 211.72 46.62Q208.56 44.62 206.56 42.06L206.56 42.06L206.56 52.14L212.08 52.14L212.08 65.26L184.64 65.26 zM211.20 34.38Q213.52 34.38 214.68 33.14Q215.84 31.90 215.84 29.26L215.84 29.26L215.84 21.26Q215.84 18.62 214.68 17.38Q213.52 16.14 211.20 16.14L211.20 16.14Q208.88 16.14 207.72 17.38Q206.56 18.62 206.56 21.26L206.56 21.26L206.56 29.26Q206.56 31.90 207.72 33.14Q208.88 34.38 211.20 34.38L211.20 34.38" style="fill: rgb(0, 162, 255);" transform="translate(-196.040,-23.749)"></path></g><g class="path" style="opacity: 1; transform-origin: 66.6px 28.84px; transform: matrix3d(1, 0, 0, 0, 0, 1, 0, 0, 0, 0, 1, 0, 0, 0, 0, 1); animation: 0.793651s linear -0.14966s infinite normal forwards running animate-2mmn6bgnv7h; transform-box: view-box;"><path d="M237.28 65.26L237.28 52.14L240.80 52.14L240.80 16.14L237.28 16.14L237.28 3.02L259.20 3.02L259.20 8.46Q261.20 5.90 264.36 3.90Q267.52 1.90 271.60 1.90L271.60 1.90Q279.76 1.90 283.88 7.98Q288 14.06 288 25.26L288 25.26Q288 36.46 283.88 42.54Q279.76 48.62 271.60 48.62L271.60 48.62Q267.52 48.62 264.36 46.62Q261.20 44.62 259.20 42.06L259.20 42.06L259.20 52.14L264.72 52.14L264.72 65.26L237.28 65.26 zM263.84 34.38Q266.16 34.38 267.32 33.14Q268.48 31.90 268.48 29.26L268.48 29.26L268.48 21.26Q268.48 18.62 267.32 17.38Q266.16 16.14 263.84 16.14L263.84 16.14Q261.52 16.14 260.36 17.38Q259.20 18.62 259.20 21.26L259.20 21.26L259.20 29.26Q259.20 31.90 260.36 33.14Q261.52 34.38 263.84 34.38L263.84 34.38" style="fill: rgb(43, 179, 230);" transform="translate(-196.040,-23.749)"></path></g><g class="path" style="opacity: 1; transform-origin: 113.68px 15.53px; transform: matrix3d(1, 0, 0, 0, 0, 1, 0, 0, 0, 0, 1, 0, 0, 0, 0, 1); animation: 0.793651s linear -0.0748299s infinite normal forwards running animate-2mmn6bgnv7h; transform-box: view-box;"><path d="M309.68 48.62Q299.60 48.62 290.24 45.42L290.24 45.42L290.24 33.58L303.20 33.58L303.20 34.38Q303.20 38.22 308.08 38.22L308.08 38.22Q312.40 38.22 312.40 35.26L312.40 35.26Q312.40 33.66 311.16 32.86Q309.92 32.06 306.80 31.50L306.80 31.50L302.80 30.78Q290.24 28.54 290.24 16.54L290.24 16.54Q290.24 9.58 295.52 5.74Q300.80 1.90 309.76 1.90L309.76 1.90Q319.76 1.90 326.64 5.26L326.64 5.26L326.64 16.38L314.48 16.38L314.48 15.58Q314.48 13.98 313.40 13.14Q312.32 12.30 310.24 12.30L310.24 12.30Q306.24 12.30 306.24 14.86L306.24 14.86Q306.24 16.22 307.36 16.94Q308.48 17.66 311.44 18.30L311.44 18.30L316 19.18Q323.12 20.54 326.16 24.22Q329.20 27.90 329.20 33.66L329.20 33.66Q329.20 40.94 324.12 44.78Q319.04 48.62 309.68 48.62L309.68 48.62" style="fill: rgb(81, 115, 204);" transform="translate(-196.040,-23.749)"></path></g><g class="path" style="opacity: 1; transform-origin: 166.28px 11.3px; transform: matrix3d(1, 0, 0, 0, 0, 1, 0, 0, 0, 0, 1, 0, 0, 0, 0, 1); animation: 0.793651s linear 0s infinite normal forwards running animate-2mmn6bgnv7h; transform-box: view-box;"><path d="M373.60 15.42L389.84 34.38L393.20 34.38L393.20 47.50L362.96 47.50L362.96 34.38L366.24 34.38L361.60 27.82L360.80 27.82L356.16 34.38L359.44 34.38L359.44 47.50L331.44 47.50L331.44 34.38L335.60 34.38L350.96 17.10L334.96-1.62L331.60-1.62L331.60-14.74L361.60-14.74L361.60-1.62L358.56-1.62L362.96 4.94L363.76 4.94L368.16-1.62L365.12-1.62L365.12-14.74L392.88-14.74L392.88-1.62L388.72-1.62L373.60 15.42" style="fill: rgb(34, 200, 254);" transform="translate(-196.040,-23.749)"></path></g></g><text dy="0.35em" fill="#5173cc" font-family="Alfa Slab One" font-size="46">OnAppsX</text>
</g>
</g><style type="text/css">@keyframes animate-2mmn6bgnv7h { 0.00% {transform: translate(0.00px,0.00px) rotate(0.00deg) scale(1.00, 1.00) skew(0deg, 0.00deg) ;opacity: 1.00;}2.00% {animation-timing-function: cubic-bezier(0.20,0.39,0.50,0.97);transform: translate(0.00px,-1.08px) rotate(0.00deg) ;}36.00% {animation-timing-function: cubic-bezier(0.50,0.03,0.80,0.61);transform: translate(0.00px,-10.00px) rotate(0.00deg) ;}72.00% {transform: translate(0.00px,-0.12px) rotate(0.00deg) ;}74.00% {animation-timing-function: cubic-bezier(0.24,0.43,0.48,0.91);transform: translate(0.00px,0.00px) rotate(0.00deg) scale(1.00, 0.95) ;}86.00% {animation-timing-function: cubic-bezier(0.53,0.08,0.77,0.57);transform: translate(0.00px,0.00px) rotate(0.00deg) scale(1.00, 0.80) ;}100.00% {animation-timing-function: cubic-bezier(0.53,0.08,0.77,0.57);transform: translate(0.00px,0.00px) rotate(0.00deg) scale(1.00, 1.00) ;} }</style><!-- [ldio] generated by https://loading.io --></svg>